<svg width="24" height="24" viewBox="0 0 24 24" fill="none" xmlns="http://www.w3.org/2000/svg">
<g id="icon / iconoir / eye-off">
<g id="Vector">
<path d="M3 3L21 21L3 3Z" fill="#F2F2F2"/>
<path d="M3 3L21 21" stroke="#252525" stroke-width="1.5" stroke-linecap="round" stroke-linejoin="round"/>
</g>
<path id="Vector_2" d="M10.5 10.677C10.1888 11.0295 10 11.4927 10 11.9999C10 13.1044 10.8954 13.9999 12 13.9999C12.5072 13.9999 12.9703 13.8111 13.3229 13.4999" stroke="#252525" stroke-width="1.5" stroke-linecap="round" stroke-linejoin="round"/>
<path id="Vector_3" d="M7.36185 7.56104C5.68002 8.73962 4.27894 10.4187 3 11.9999C4.88856 14.9909 8.2817 17.9999 12 17.9999C13.5499 17.9999 15.0434 17.4771 16.3949 16.6507" stroke="#252525" stroke-width="1.5" stroke-linecap="round" stroke-linejoin="round"/>
<path id="Vector_4" d="M12 6C16.0084 6 18.7015 9.1582 21 12C20.6815 12.5043 20.3203 13.0092 19.922 13.5" stroke="#252525" stroke-width="1.5" stroke-linecap="round" stroke-linejoin="round"/>
</g>
</svg>
