<svg width="16" height="17" viewBox="0 0 16 17" fill="none" xmlns="http://www.w3.org/2000/svg">
<path fill-rule="evenodd" clip-rule="evenodd" d="M3 13.8711C2.86739 13.8711 2.74021 13.8184 2.64645 13.7246C2.55268 13.6309 2.5 13.5037 2.5 13.3711V3.37109C2.5 3.23849 2.55268 3.11131 2.64645 3.01754C2.74021 2.92377 2.86739 2.87109 3 2.87109H12.25C12.4489 2.87109 12.6397 2.79208 12.7803 2.65142C12.921 2.51077 13 2.32001 13 2.12109C13 1.92218 12.921 1.73142 12.7803 1.59076C12.6397 1.45011 12.4489 1.37109 12.25 1.37109H3C2.46957 1.37109 1.96086 1.58181 1.58579 1.95688C1.21071 2.33195 1 2.84066 1 3.37109V13.3711C1 13.9015 1.21071 14.4102 1.58579 14.7853C1.96086 15.1604 2.46957 15.3711 3 15.3711H13C13.5304 15.3711 14.0391 15.1604 14.4142 14.7853C14.7893 14.4102 15 13.9015 15 13.3711V10.1211C15 9.92218 14.921 9.73142 14.7803 9.59076C14.6397 9.45011 14.4489 9.37109 14.25 9.37109C14.0511 9.37109 13.8603 9.45011 13.7197 9.59076C13.579 9.73142 13.5 9.92218 13.5 10.1211V13.3711C13.5 13.5037 13.4473 13.6309 13.3536 13.7246C13.2598 13.8184 13.1326 13.8711 13 13.8711H3ZM15.78 5.05109C15.9125 4.90892 15.9846 4.72087 15.9812 4.52657C15.9777 4.33227 15.899 4.14688 15.7616 4.00947C15.6242 3.87206 15.4388 3.79335 15.2445 3.78992C15.0502 3.78649 14.8622 3.85861 14.72 3.99109L9.162 9.54809L7.289 7.61209C7.22066 7.54069 7.13889 7.48349 7.04837 7.4438C6.95786 7.4041 6.86039 7.38269 6.76157 7.38079C6.66276 7.37889 6.56454 7.39654 6.47257 7.43273C6.38059 7.46891 6.29668 7.52292 6.22565 7.59164C6.15462 7.66037 6.09787 7.74246 6.05867 7.83319C6.01947 7.92391 5.99859 8.0215 5.99723 8.12032C5.99586 8.21915 6.01405 8.31727 6.05074 8.40905C6.08742 8.50082 6.14189 8.58444 6.211 8.65509L8.614 11.1391C8.68314 11.2108 8.76587 11.268 8.85737 11.3074C8.94887 11.3468 9.04729 11.3676 9.1469 11.3685C9.24651 11.3694 9.34531 11.3505 9.43752 11.3128C9.52974 11.2752 9.61353 11.2195 9.684 11.1491L15.78 5.05109Z" fill="#767387"/>
</svg>
