<svg width="32" height="32" viewBox="0 0 32 32" fill="none" xmlns="http://www.w3.org/2000/svg">
<path d="M22.8816 16.8812C22.9201 16.6 22.9394 16.3094 22.9394 16C22.9394 15.7 22.9201 15.4 22.8719 15.1187L24.8284 13.6375C25.0019 13.5062 25.0501 13.2531 24.9441 13.0656L23.0936 9.95312C22.9779 9.74687 22.737 9.68125 22.525 9.74687L20.2215 10.6469C19.7396 10.2906 19.2287 9.99062 18.6601 9.76562L18.3131 7.38437C18.2746 7.15937 18.0818 7 17.8505 7H14.1495C13.9182 7 13.7351 7.15937 13.6965 7.38437L13.3495 9.76562C12.7809 9.99062 12.2604 10.3 11.7882 10.6469L9.48469 9.74687C9.27265 9.67187 9.0317 9.74687 8.91604 9.95312L7.07518 13.0656C6.95952 13.2625 6.99807 13.5062 7.19083 13.6375L9.14735 15.1187C9.09916 15.4 9.06061 15.7094 9.06061 16C9.06061 16.2906 9.07989 16.6 9.12808 16.8812L7.17156 18.3625C6.99807 18.4937 6.94988 18.7469 7.0559 18.9344L8.9064 22.0469C9.02206 22.2531 9.26301 22.3187 9.47505 22.2531L11.7785 21.3531C12.2604 21.7094 12.7713 22.0094 13.3399 22.2344L13.6869 24.6156C13.7351 24.8406 13.9182 25 14.1495 25H17.8505C18.0818 25 18.2746 24.8406 18.3035 24.6156L18.6505 22.2344C19.2191 22.0094 19.7396 21.7094 20.2118 21.3531L22.5153 22.2531C22.7274 22.3281 22.9683 22.2531 23.084 22.0469L24.9345 18.9344C25.0501 18.7281 25.0019 18.4937 24.8188 18.3625L22.8816 16.8812ZM16 19.375C14.0917 19.375 12.5303 17.8562 12.5303 16C12.5303 14.1437 14.0917 12.625 16 12.625C17.9083 12.625 19.4697 14.1437 19.4697 16C19.4697 17.8562 17.9083 19.375 16 19.375Z" stroke="#00001B" stroke-width="1.5" stroke-linejoin="round"/>
</svg>
